<?xml version="1.0" standalone="no"?>
<!DOCTYPE svg PUBLIC "-//W3C//DTD SVG 20010904//EN"
 "http://www.w3.org/TR/2001/REC-SVG-20010904/DTD/svg10.dtd">
<svg version="1.0" xmlns="http://www.w3.org/2000/svg"
 width="1969.000000pt" height="2048.000000pt" viewBox="0 0 1969.000000 2048.000000"
 preserveAspectRatio="xMidYMid meet">

<g transform="translate(0.000000,2048.000000) scale(0.100000,-0.100000)"
fill="#000000" stroke="none">
<path d="M5 10240 l0 -10230 9840 0 9840 0 -2 10228 -3 10227 -9837 3 -9838 2
0 -10230z m19658 10210 c4 0 6 -4596 5 -10212 l-3 -10213 -9820 0 -9820 0 -3
10205 c-1 5613 0 10210 2 10215 2 7 3282 9 9817 8 5398 -2 9817 -3 9822 -3z"/>
<path d="M10050 14809 c-192 -56 -252 -308 -107 -454 31 -30 186 -125 206
-125 5 0 11 -3 13 -7 2 -5 20 -17 41 -27 56 -29 112 -81 132 -122 30 -64 0
-129 -74 -160 -44 -18 -139 -18 -184 1 -76 31 -142 110 -175 209 -11 31 -23
57 -28 56 -11 0 -17 -350 -6 -350 5 0 18 11 30 25 27 31 59 32 132 3 74 -29
224 -31 290 -5 92 38 146 98 168 189 36 143 -12 243 -154 323 -238 134 -296
180 -314 246 -25 90 26 142 139 142 138 -1 222 -73 267 -230 2 -7 8 -13 14
-13 6 0 10 55 10 155 0 85 -3 155 -7 155 -5 0 -16 -14 -25 -30 -22 -38 -49
-39 -116 -4 -40 21 -68 27 -134 30 -46 2 -99 -1 -118 -7z"/>
<path d="M8486 14791 c-4 -6 5 -13 21 -16 73 -15 89 -22 100 -45 10 -19 13
-120 13 -398 0 -427 -1 -436 -67 -447 -62 -11 -76 -16 -66 -26 13 -13 478 -7
478 6 0 6 -18 12 -40 15 -85 11 -94 34 -95 258 l0 142 25 0 c30 0 70 -48 205
-251 54 -80 106 -153 115 -162 14 -14 39 -17 155 -17 135 0 178 10 128 29 -28
10 -77 64 -133 145 -22 31 -54 76 -71 99 -16 23 -52 72 -78 109 l-47 67 57 28
c62 30 117 88 135 141 6 20 9 64 7 102 -6 80 -30 125 -87 164 -77 54 -110 59
-442 64 -213 3 -309 1 -313 -7z m509 -60 c74 -33 115 -104 115 -199 0 -69 -39
-130 -111 -174 -28 -18 -136 -28 -156 -15 -10 6 -13 58 -13 201 0 106 3 196 7
199 14 14 119 6 158 -12z"/>
<path d="M11467 14624 c-106 -38 -194 -135 -534 -594 -43 -58 -86 -114 -97
-125 -10 -11 -41 -54 -69 -95 -28 -41 -65 -93 -83 -115 -18 -23 -71 -99 -118
-170 -47 -72 -102 -147 -121 -168 -19 -21 -64 -86 -101 -145 -37 -59 -77 -116
-89 -127 -29 -26 -172 -246 -198 -305 -11 -25 -37 -72 -59 -106 -48 -77 -49
-91 -5 -86 55 6 157 -27 227 -73 77 -52 119 -95 149 -152 l21 -42 28 27 c16
15 45 51 66 80 21 28 42 52 47 52 49 0 -83 176 -178 236 -15 10 -30 22 -33 25
-3 4 -34 17 -70 29 -49 17 -78 21 -117 16 -42 -5 -53 -3 -53 8 0 19 22 26 88
26 154 0 284 -87 361 -240 l29 -59 21 25 c11 13 21 27 21 32 0 4 18 34 40 67
22 33 40 67 40 75 0 8 38 74 85 145 46 72 85 138 85 148 0 10 8 30 19 45 60
86 151 235 151 245 0 7 31 62 69 123 38 60 82 137 98 170 29 56 86 165 158
299 210 393 255 499 255 608 0 46 -19 110 -36 119 -24 14 -63 15 -97 2z m-143
-218 c-40 -45 -149 -192 -228 -306 -107 -157 -439 -656 -515 -775 -110 -173
-235 -368 -269 -419 -26 -38 -31 -41 -80 -44 -62 -4 -67 10 -24 67 16 20 53
72 84 116 30 44 93 133 139 197 46 65 109 153 139 195 30 43 57 80 60 83 6 5
144 195 170 233 14 21 41 58 205 277 154 205 344 434 353 425 3 -3 -13 -24
-34 -49z m-992 -1746 c35 -22 58 -40 53 -40 -12 0 -125 69 -125 76 0 8 11 3
72 -36z m28 14 c0 -2 -9 0 -20 6 -11 6 -20 13 -20 16 0 2 9 0 20 -6 11 -6 20
-13 20 -16z m-69 -31 c10 -12 5 -11 -18 6 -18 12 -33 24 -33 27 0 9 37 -15 51
-33z m53 -28 c11 -8 15 -15 10 -15 -6 0 -19 7 -30 15 -10 8 -14 14 -9 14 6 0
19 -6 29 -14z m-119 -53 c-7 -7 -45 19 -56 39 -9 18 -5 17 25 -7 19 -15 33
-30 31 -32z m95 12 c0 -3 -13 3 -30 13 -16 9 -30 21 -30 26 0 5 14 -1 30 -13
17 -12 30 -24 30 -26z m-44 1 c32 -19 52 -35 46 -35 -13 0 -49 21 -91 52 -37
28 -19 21 45 -17z m90 -10 c10 -8 15 -14 9 -14 -5 0 -19 6 -29 14 -11 8 -15
15 -10 15 6 0 19 -7 30 -15z m-6 -30 c11 -13 10 -14 -4 -9 -9 3 -16 10 -16 15
0 13 6 11 20 -6z m-35 -26 c11 -17 -1 -21 -15 -4 -8 9 -8 15 -2 15 6 0 14 -5
17 -11z"/>
<path d="M9572 14027 c-27 -28 -32 -41 -32 -80 0 -114 142 -160 200 -65 11 18
20 47 20 63 0 39 -33 93 -66 105 -50 19 -88 12 -122 -23z"/>
<path d="M7155 13590 c-214 -33 -485 -134 -755 -282 -94 -52 -75 -28 -255
-325 -121 -200 -261 -425 -340 -548 -40 -60 -104 -162 -144 -225 -113 -179
-279 -434 -290 -447 -6 -7 -11 -14 -11 -17 0 -3 -31 -52 -68 -108 -113 -169
-187 -282 -191 -292 -2 -5 -34 -55 -70 -110 -37 -56 -116 -176 -176 -269 -61
-92 -278 -420 -482 -730 -205 -309 -369 -563 -364 -565 5 -2 62 11 127 27 136
34 454 93 624 116 346 46 824 58 1195 30 270 -20 340 -29 633 -82 l152 -27 45
22 c25 12 54 22 65 22 27 0 25 -25 -2 -44 -26 -19 -35 -15 152 -62 308 -76
734 -224 1030 -356 25 -11 124 -59 220 -107 96 -47 179 -88 185 -90 18 -8 -20
24 -65 54 -25 16 -47 32 -50 35 -6 7 -160 117 -195 140 -13 8 -58 40 -102 71
-138 98 -365 244 -470 303 -153 86 -295 141 -447 171 -15 3 -26 8 -23 11 7 7
155 -25 246 -52 17 -5 22 -4 17 4 -5 8 0 12 14 12 11 0 51 7 88 15 37 9 89 20
115 26 90 20 248 27 382 16 93 -8 89 -4 -15 14 -50 9 -92 24 -130 47 -55 34
-391 203 -465 234 -263 111 -300 125 -500 186 -161 49 -194 57 -325 82 -274
51 -467 64 -712 50 -94 -5 -174 -8 -176 -6 -4 4 52 93 233 369 55 84 120 184
144 223 25 38 72 112 106 164 34 52 119 183 189 290 70 107 185 283 255 390
70 107 149 230 176 273 28 42 95 146 150 230 55 84 133 205 174 268 156 241
250 385 359 552 128 193 162 249 162 264 0 32 -277 54 -415 33z m490 -3605
c206 -25 220 -33 60 -34 -77 -1 -194 -8 -260 -16 -154 -19 -233 -18 -320 1
-38 8 -92 19 -120 23 l-50 7 55 8 c160 20 208 24 350 25 86 0 213 -6 285 -14z"/>
<path d="M12201 13584 c-36 -7 -69 -18 -74 -23 -11 -11 -4 -24 81 -154 37 -56
69 -106 72 -112 3 -5 44 -68 91 -140 47 -71 121 -185 165 -252 43 -67 115
-177 159 -244 44 -67 89 -137 100 -155 18 -30 147 -229 287 -442 31 -48 99
-152 150 -232 51 -80 96 -149 101 -155 8 -11 49 -74 224 -342 65 -100 150
-230 188 -289 39 -59 79 -122 90 -140 11 -18 69 -108 128 -199 60 -92 107
-168 105 -170 -2 -2 -80 0 -173 5 -511 28 -1008 -78 -1592 -342 -159 -71 -515
-260 -520 -275 -2 -6 9 -14 24 -18 15 -3 89 -29 163 -57 134 -50 279 -121 408
-200 64 -39 69 -40 107 -29 164 47 351 93 470 115 77 15 172 33 210 41 360 73
1010 104 1450 70 314 -24 632 -73 909 -140 81 -20 152 -35 157 -33 6 2 -144
235 -333 518 -342 514 -431 649 -645 980 -62 96 -117 182 -123 190 -57 85
-425 652 -560 864 -262 412 -414 655 -496 791 -168 281 -126 239 -346 349
-270 134 -457 198 -654 226 -102 14 -245 11 -323 -6z"/>
<path d="M7977 13233 c-11 -17 46 -23 192 -22 99 1 125 4 96 10 -70 14 -281
23 -288 12z"/>
<path d="M8561 13184 c-21 -15 -56 -16 -323 -11 l-300 6 7 -45 c6 -43 5 -45
-17 -40 -13 3 -66 10 -118 16 -104 12 -131 6 -236 -46 -43 -22 -53 -32 -67
-72 -28 -79 -29 -78 76 -80 50 -2 180 -7 287 -12 107 -6 292 -15 410 -20 118
-6 298 -15 400 -20 102 -5 204 -9 228 -10 41 0 43 -1 40 -27 l-3 -28 -125 3
c-69 1 -307 11 -530 22 -223 11 -459 22 -525 25 -66 3 -161 8 -210 11 l-90 6
-19 -38 c-20 -43 -33 -171 -22 -228 4 -21 22 -54 42 -76 29 -32 45 -40 99 -51
l65 -13 0 -43 0 -44 -37 7 c-21 4 -48 10 -60 15 -13 5 -25 4 -28 -1 -3 -5 -2
-59 1 -119 l7 -111 58 0 c34 0 59 -5 61 -12 2 -6 13 -12 24 -13 10 -1 31 -7
47 -13 15 -7 39 -14 54 -16 14 -3 31 -10 37 -16 5 -5 32 -10 59 -10 26 0 46
-4 43 -8 -2 -4 5 -9 17 -9 53 -4 87 -15 87 -28 0 -15 62 -31 79 -21 6 4 18 2
28 -3 10 -5 44 -15 76 -22 31 -7 57 -16 57 -21 0 -4 8 -8 18 -8 10 0 21 -3 25
-6 3 -3 29 -7 58 -9 29 -1 55 -8 57 -14 2 -6 21 -11 42 -11 21 0 40 -5 42 -10
3 -9 35 -20 66 -22 6 -1 12 -5 12 -10 0 -6 6 -8 13 -5 6 2 21 -1 32 -7 11 -6
29 -12 40 -13 11 -1 35 -5 53 -9 23 -4 32 -3 32 7 0 7 2 10 5 8 2 -3 -1 -21
-7 -40 -6 -19 -14 -122 -17 -229 -4 -136 -9 -194 -17 -193 -6 1 -24 4 -40 7
-15 3 -48 12 -73 20 -47 16 -96 27 -107 25 -13 -2 -24 27 -24 64 0 20 -4 37
-8 37 -4 0 -60 -23 -122 -51 -63 -28 -134 -57 -156 -65 -30 -11 -49 -27 -72
-62 -33 -51 -72 -96 -78 -90 -6 7 8 48 16 48 5 0 19 14 31 31 l22 31 -24 -7
c-57 -17 4 17 126 70 196 85 348 154 365 165 32 20 0 20 -39 -1 -23 -12 -44
-19 -48 -16 -3 3 6 9 21 13 14 3 27 9 27 13 5 22 6 57 3 63 -5 7 -41 -6 -144
-54 -36 -17 -81 -36 -101 -43 -19 -7 -59 -25 -87 -39 -28 -14 -57 -26 -64 -26
-18 1 47 34 136 70 42 16 102 43 134 59 31 15 81 36 109 45 49 16 71 31 60 42
-2 2 -70 -25 -151 -61 -81 -36 -149 -65 -151 -65 -3 0 -33 -13 -67 -30 -34
-16 -67 -30 -74 -30 -15 0 -24 -32 -24 -86 0 -34 -4 -43 -22 -47 -12 -3 -30
-1 -41 5 -12 6 -17 6 -13 0 4 -6 -2 -8 -14 -5 -11 3 -20 10 -20 15 0 5 -4 7
-9 4 -15 -10 -41 5 -41 22 0 10 -9 5 -28 -16 -33 -37 -37 -38 -46 -15 -4 10
-4 14 0 10 10 -10 37 31 29 43 -4 6 -14 8 -23 6 -10 -3 -30 -2 -47 3 -22 7
-24 10 -10 11 11 1 -52 26 -140 57 -149 52 -167 56 -262 58 -57 1 -103 -2
-103 -6 0 -4 21 -8 48 -8 29 0 97 -16 182 -44 74 -24 177 -57 228 -73 99 -30
115 -53 19 -28 -32 8 -67 12 -78 9 -10 -4 -19 -2 -19 3 0 4 -35 13 -77 19
-116 17 -196 32 -218 42 -38 17 -54 20 -60 11 -4 -6 -15 -10 -26 -10 -11 0
-17 -4 -14 -10 9 -14 -5 -13 -55 5 -38 13 -41 13 -30 0 10 -12 9 -15 -5 -15
-15 0 -15 -3 -5 -15 22 -27 -1 -34 -108 -36 -70 -1 -102 -5 -102 -13 0 -13 29
-57 44 -68 6 -4 88 -8 183 -8 94 0 183 -4 197 -10 19 -7 26 -6 26 2 0 6 3 8 6
5 4 -3 16 -1 27 4 18 10 19 9 15 -15 -5 -24 0 -30 52 -56 32 -16 136 -54 231
-85 96 -31 198 -65 227 -77 l52 -20 63 25 c74 31 243 105 310 137 l49 23 116
-27 c65 -16 144 -30 177 -33 55 -5 58 -4 40 10 -26 20 -12 33 21 19 33 -16 71
-6 78 21 3 12 6 90 6 172 0 142 11 242 45 410 28 142 71 503 79 665 l6 105
-30 -110 c-64 -241 -73 -264 -116 -312 -16 -18 -51 -42 -79 -54 -43 -19 -60
-21 -140 -15 -108 7 -135 14 -135 32 0 8 -7 17 -15 20 -18 7 -20 64 -2 64 6 0
43 -7 82 -15 83 -18 98 -18 146 -5 89 25 121 99 189 430 31 151 46 178 127
225 82 48 91 44 -198 75 -118 13 -218 26 -222 30 -5 4 1 23 12 41 30 48 27 93
-5 118 -32 25 -52 26 -83 5z m-346 -64 c91 -10 213 -33 273 -52 37 -11 46 -42
10 -33 -34 7 -378 45 -415 45 -35 0 -46 10 -37 34 7 19 41 20 169 6z m-457
-67 c-10 -2 -26 -2 -35 0 -10 3 -2 5 17 5 19 0 27 -2 18 -5z m65 -10 c-7 -2
-19 -2 -25 0 -7 3 -2 5 12 5 14 0 19 -2 13 -5z m-114 -429 c60 -14 71 -19 71
-37 0 -18 -1 -19 -12 -5 -7 9 -38 21 -68 28 -54 12 -96 29 -74 30 6 0 44 -7
83 -16z m727 -146 c42 -7 64 -16 64 -25 0 -9 -5 -11 -12 -7 -7 4 -44 15 -83
25 -81 20 -62 24 31 7z m561 -40 c-3 -8 -6 -5 -6 6 -1 11 2 17 5 13 3 -3 4
-12 1 -19z m-1077 -28 c58 -12 121 -25 140 -29 19 -5 92 -19 162 -32 l128 -24
0 -47 c0 -33 -4 -48 -13 -48 -18 0 -337 65 -413 83 -33 8 -71 18 -86 21 -16 4
-28 13 -28 21 0 8 -7 15 -15 15 -10 0 -15 10 -15 30 0 36 1 37 140 10z m577
-17 c-3 -10 -5 -4 -5 12 0 17 2 24 5 18 2 -7 2 -21 0 -30z m400 -675 c-3 -8
-6 -5 -6 6 -1 11 2 17 5 13 3 -3 4 -12 1 -19z m-460 -119 c-33 -19 -127 -59
-127 -54 0 7 121 64 135 64 6 0 2 -4 -8 -10z m-277 -200 c0 -19 -153 -220
-164 -216 -12 5 -12 22 -1 51 7 15 5 17 -11 9 -20 -9 -50 -9 -99 1 -16 3 -51
9 -77 12 -27 4 -48 11 -48 16 0 6 -20 8 -44 7 -24 -2 -42 -1 -40 3 2 3 -18 9
-46 13 -27 4 -50 11 -50 16 0 5 -8 9 -17 9 -10 0 -25 5 -33 10 -46 31 110 36
169 6 14 -8 44 -13 66 -13 23 0 55 -8 73 -17 18 -9 57 -17 87 -18 30 -1 52 -5
49 -10 -3 -4 0 -8 5 -8 6 0 11 5 11 12 0 6 6 3 14 -8 14 -19 15 -19 33 1 10
11 38 46 62 78 42 55 61 69 61 46z m305 -59 c-3 -5 -11 -10 -16 -10 -6 0 -7 5
-4 10 3 6 11 10 16 10 6 0 7 -4 4 -10z m-100 -43 c-23 -16 -63 -32 -52 -21 10
10 51 32 62 33 5 1 1 -5 -10 -12z"/>
<path d="M9125 12870 c-14 -16 -15 -20 -4 -20 16 0 39 19 39 32 0 14 -16 9
-35 -12z"/>
<path d="M9176 12833 c-26 -22 -37 -25 -76 -20 -25 3 -52 7 -59 9 -7 2 -17 -7
-22 -20 -7 -19 -5 -24 17 -32 l26 -10 -7 -103 c-15 -250 -28 -394 -51 -567
-14 -101 -27 -187 -29 -190 -2 -3 -13 -64 -25 -136 -14 -86 -22 -185 -24 -296
-2 -136 -6 -171 -20 -192 -9 -14 -24 -26 -34 -27 -9 0 -12 -3 -5 -5 20 -9 50
14 63 48 13 32 78 100 175 182 65 56 83 118 65 233 -9 57 -11 127 -6 229 6
137 12 211 36 454 26 259 32 394 18 432 l-13 36 -29 -25z"/>
<path d="M9946 12559 c-2 -8 -7 -27 -11 -44 -3 -16 -29 -66 -57 -110 -29 -44
-71 -110 -94 -146 -23 -36 -50 -84 -59 -105 -9 -21 -34 -58 -57 -81 -44 -45
-47 -62 -29 -131 10 -36 15 -41 27 -32 8 7 14 19 14 28 0 24 110 10 164 -22
60 -35 76 -77 52 -136 -5 -13 4 -14 66 -10 43 3 73 10 76 18 2 6 22 40 46 74
23 35 82 126 131 203 48 77 105 159 126 183 l38 43 -37 42 c-120 135 -184 178
-299 202 -35 7 -71 19 -78 25 -12 10 -16 9 -19 -1z m129 -71 c6 -6 -222 -369
-241 -384 -16 -13 -69 -7 -83 10 -9 11 54 128 134 246 17 25 37 58 45 73 8 16
24 39 36 52 18 20 27 22 63 15 23 -4 44 -9 46 -12z m-227 -462 c53 -28 93 -57
135 -101 61 -65 46 -66 -24 -2 -41 37 -98 79 -126 92 -29 14 -53 28 -53 30 0
10 23 4 68 -19z"/>
<path d="M12750 12160 c-9 -6 -10 -10 -3 -10 6 0 15 5 18 10 8 12 4 12 -15 0z"/>
<path d="M12685 12130 c-3 -5 1 -10 9 -10 9 0 16 5 16 10 0 6 -4 10 -9 10 -6
0 -13 -4 -16 -10z"/>
<path d="M7715 11915 c-27 -14 -58 -25 -67 -25 -9 0 -20 -4 -23 -10 -3 -5 -18
-10 -33 -10 l-27 -1 26 -14 c32 -17 194 -65 218 -64 12 0 12 2 -4 9 l-20 9 20
1 c11 1 0 8 -25 15 -25 7 -38 13 -30 14 8 1 30 -3 48 -8 47 -14 82 1 82 35 0
25 2 26 40 21 22 -3 40 -1 40 4 0 5 -9 9 -20 9 -11 0 -20 4 -20 9 0 9 -42 18
-115 26 -29 3 -54 -3 -90 -20z m22 -31 c-3 -3 -12 -4 -19 -1 -8 3 -5 6 6 6 11
1 17 -2 13 -5z m48 -6 c-11 -6 -23 -16 -27 -22 -4 -6 -10 -7 -13 -4 -11 11 18
37 40 37 l20 0 -20 -11z m-58 -54 c-3 -3 -12 -4 -19 -1 -8 3 -5 6 6 6 11 1 17
-2 13 -5z"/>
<path d="M12344 11925 c-10 -8 -14 -15 -8 -15 5 0 19 7 30 15 10 8 14 15 8 15
-5 0 -19 -7 -30 -15z"/>
<path d="M9842 11843 c-45 -64 -149 -309 -167 -393 -16 -74 -35 -108 -66 -115
-41 -9 -48 -26 -7 -18 18 3 43 10 55 14 26 10 63 64 63 92 0 11 8 31 18 45 29
43 103 184 98 189 -5 5 -66 -100 -66 -113 0 -13 -51 -86 -56 -81 -15 14 98
289 147 359 11 14 19 31 19 37 0 20 -18 12 -38 -16z"/>
<path d="M8200 11840 c-11 -11 -20 -15 -20 -9 0 5 -5 7 -10 4 -6 -4 -8 -11 -5
-16 3 -5 0 -6 -8 -3 -8 3 -18 1 -22 -5 -3 -6 -17 -11 -30 -11 -13 0 -27 -4
-30 -10 -3 -6 1 -7 12 -4 10 3 2 -4 -17 -15 -19 -11 -42 -20 -50 -20 -8 0 -1
6 15 14 42 19 24 18 -27 -2 -24 -9 -53 -25 -65 -36 -19 -17 -32 -19 -93 -15
-44 3 -68 2 -62 -4 5 -5 23 -10 41 -10 17 -1 29 -3 26 -6 -3 -3 18 -13 45 -23
l51 -18 72 33 c112 52 164 78 144 72 -11 -4 -16 -2 -11 5 3 6 15 9 25 6 18 -5
22 6 19 49 -1 3 9 14 22 24 13 11 17 19 11 20 -7 0 -22 -9 -33 -20z"/>
<path d="M9575 11803 c-44 -52 -101 -138 -85 -128 6 4 22 24 36 46 13 22 41
58 61 80 20 22 34 41 32 44 -3 2 -23 -17 -44 -42z"/>
<path d="M7835 11810 c-3 -5 3 -10 14 -10 11 0 23 5 26 10 3 6 -3 10 -14 10
-11 0 -23 -4 -26 -10z"/>
<path d="M7563 11783 c9 -2 23 -2 30 0 6 3 -1 5 -18 5 -16 0 -22 -2 -12 -5z"/>
<path d="M7620 11776 c3 -3 44 -8 90 -12 47 -3 83 -4 80 -1 -3 3 -44 9 -90 12
-47 4 -83 4 -80 1z"/>
<path d="M9574 11688 c-38 -51 -91 -127 -119 -168 -27 -41 -53 -76 -56 -78 -3
-1 -4 -14 -1 -27 2 -15 -4 -34 -17 -51 -12 -15 -21 -30 -21 -34 0 -5 -18 -38
-40 -74 -41 -67 -50 -87 -27 -64 18 18 41 56 83 134 20 37 51 82 68 100 18 18
39 46 47 61 8 15 36 64 63 108 58 97 99 175 93 181 -2 3 -35 -37 -73 -88z"/>
<path d="M7215 11760 c-3 -5 2 -10 12 -10 17 -1 17 -1 0 -15 -18 -13 -18 -14
0 -22 10 -4 64 -7 121 -5 93 3 102 5 102 23 0 14 7 19 25 19 14 0 25 5 25 10
0 6 -53 10 -139 10 -83 0 -142 -4 -146 -10z"/>
<path d="M7105 11690 c18 -7 19 -8 3 -15 -24 -9 -23 -21 2 -28 11 -3 18 0 17
6 -1 6 8 13 21 15 45 7 10 33 -43 31 l-20 0 20 -9z"/>
<path d="M9437 11633 c-4 -3 -7 -11 -7 -17 0 -6 5 -5 12 2 6 6 9 14 7 17 -3 3
-9 2 -12 -2z"/>
<path d="M7338 11593 c-18 -3 -28 -11 -28 -21 0 -12 3 -13 12 -4 15 15 32 16
23 2 -3 -5 -2 -10 3 -10 5 0 12 9 15 20 3 11 4 19 4 19 -1 -1 -14 -4 -29 -6z"/>
<path d="M9406 11584 c-5 -14 -4 -15 9 -4 17 14 19 20 6 20 -5 0 -12 -7 -15
-16z"/>
<path d="M6968 11573 c7 -3 16 -2 19 1 4 3 -2 6 -13 5 -11 0 -14 -3 -6 -6z"/>
<path d="M10556 11565 c-3 -9 -6 -22 -5 -28 0 -7 5 -1 10 12 5 13 8 26 5 28
-2 2 -6 -3 -10 -12z"/>
<path d="M7120 11554 c-32 -12 -32 -13 -9 -13 14 -1 34 6 45 14 23 17 11 17
-36 -1z"/>
<path d="M9360 11541 c-12 -17 -17 -31 -12 -31 12 0 46 50 39 56 -3 3 -15 -9
-27 -25z"/>
<path d="M10547 11501 c6 -22 43 -60 43 -44 0 6 -7 16 -15 23 -8 7 -15 19 -15
26 0 8 -4 14 -9 14 -5 0 -7 -9 -4 -19z"/>
<path d="M9309 11482 c-16 -19 -34 -69 -44 -122 -12 -62 -55 -214 -70 -246 -8
-17 -21 -37 -30 -44 -19 -16 -19 -40 0 -40 8 0 15 5 15 10 0 6 9 29 19 53 11
23 29 76 41 117 46 169 71 254 74 258 3 2 15 -2 28 -9 l23 -12 -20 24 c-11 13
-20 25 -20 26 -1 1 -8 -5 -16 -15z"/>
<path d="M10182 11368 c-48 -77 -45 -166 5 -220 31 -33 105 -52 148 -39 28 9
26 9 -20 10 -67 1 -109 28 -135 86 -24 52 -20 98 12 154 25 44 16 52 -10 9z"/>
<path d="M9339 11161 c-13 -11 -22 -22 -19 -24 3 -3 16 5 29 19 28 29 22 31
-10 5z"/>
<path d="M9758 11109 c-40 -41 -85 -90 -100 -111 -15 -20 -34 -43 -42 -51 -30
-30 -148 -220 -192 -310 -25 -50 -51 -103 -57 -117 -13 -26 -54 -153 -82 -250
-51 -185 -38 -497 30 -735 13 -44 23 -81 21 -82 -1 -1 -37 32 -81 74 -268 255
-341 319 -535 473 -614 489 -1179 778 -1810 928 -230 55 -600 100 -600 74 0
-5 -8 -17 -17 -28 -43 -47 -123 -166 -118 -175 4 -5 35 -9 69 -9 230 0 620
-67 916 -156 261 -80 621 -238 855 -377 33 -20 78 -46 100 -58 110 -60 601
-408 620 -440 4 -6 4 -13 0 -17 -3 -3 -9 -2 -13 4 -10 16 -52 28 -52 15 0 -6
8 -11 17 -11 9 0 28 -10 41 -22 20 -18 24 -19 19 -5 -7 18 3 23 19 8 5 -5 41
-26 79 -46 39 -21 81 -48 95 -60 14 -12 31 -20 38 -18 7 3 10 -1 6 -10 -6 -16
50 -53 73 -49 6 1 14 -2 18 -8 3 -5 0 -10 -7 -10 -7 -1 10 -12 39 -25 28 -13
54 -29 58 -36 4 -6 -4 -3 -19 6 -15 10 -26 13 -26 6 0 -6 3 -11 8 -11 4 0 25
-17 47 -38 22 -20 48 -43 58 -51 16 -12 17 -12 11 5 -5 13 0 10 14 -8 12 -14
22 -32 22 -40 0 -7 5 -20 11 -28 8 -12 9 -9 4 10 -5 19 0 16 20 -15 41 -61 85
-157 78 -168 -3 -6 -1 -7 4 -4 6 4 23 -6 39 -22 70 -68 154 -160 154 -167 0
-10 -48 -142 -59 -164 -4 -8 -14 -39 -20 -68 -7 -28 -17 -54 -21 -57 -4 -3
-25 16 -45 41 l-38 46 13 74 c13 76 9 241 -6 281 -6 13 -9 -32 -10 -125 0
-104 -5 -166 -18 -212 -27 -103 -78 -250 -88 -250 -4 0 -32 19 -61 43 -29 23
-66 52 -82 64 -17 13 -63 48 -103 78 -39 31 -77 53 -82 50 -6 -4 -9 -2 -8 3 3
11 -55 60 -111 94 -20 12 -39 26 -42 31 -3 5 -10 8 -15 8 -5 0 -27 16 -48 37
-22 20 -37 29 -33 20 3 -10 5 -18 3 -18 -2 0 -104 49 -227 109 -560 273 -1170
493 -1694 611 l-100 23 -73 -38 c-40 -20 -71 -39 -70 -41 2 -2 58 -15 123 -29
295 -63 766 -202 985 -290 19 -8 96 -37 170 -65 142 -54 165 -64 435 -186 181
-81 373 -179 580 -294 80 -45 355 -214 430 -265 35 -24 69 -57 82 -80 27 -47
69 -172 61 -180 -3 -3 -26 7 -52 23 -60 39 -145 56 -211 43 -27 -5 -53 -7 -56
-5 -4 2 -19 25 -34 52 -35 60 -127 182 -138 182 -10 0 8 -33 28 -50 17 -14
115 -173 115 -187 0 -5 -46 -24 -102 -43 -135 -45 -322 -119 -326 -130 -2 -5
-11 -6 -20 -3 -13 4 -14 3 -4 -5 9 -6 26 -3 52 9 22 11 43 19 48 19 6 0 23 7
38 15 35 18 98 21 74 4 -12 -9 -12 -10 3 -5 10 3 21 6 23 6 2 0 4 7 4 15 0 10
8 13 28 10 69 -11 126 -14 106 -5 -12 4 -24 15 -27 24 -8 20 -12 20 59 -4 32
-12 67 -19 77 -16 13 3 17 0 13 -10 -4 -10 -2 -12 6 -8 16 10 96 6 119 -6 37
-20 19 -1 -23 24 -40 24 -41 26 -16 26 15 0 30 -4 33 -10 3 -5 15 -10 26 -10
10 0 19 -4 19 -10 0 -5 18 -13 41 -16 22 -4 46 -12 52 -19 7 -6 18 -10 25 -7
7 2 19 -2 27 -8 12 -10 18 -10 30 0 9 8 15 8 15 2 0 -11 90 -76 96 -69 7 7
-66 68 -76 62 -12 -8 -13 17 -1 31 5 5 11 37 13 72 5 75 18 94 48 67 18 -16
24 -17 42 -6 11 7 21 11 21 9 35 -72 60 -108 101 -144 68 -59 84 -56 21 4 -65
60 -92 105 -100 167 -6 41 -5 48 6 38 22 -21 29 -15 30 25 1 29 2 32 7 14 8
-26 13 -27 60 -10 21 8 32 19 33 33 1 16 2 17 6 3 5 -21 20 -24 26 -5 2 6 2
-1 -1 -18 -9 -57 -2 -118 19 -152 11 -18 22 -33 24 -33 1 0 -6 25 -18 55 -17
48 -18 60 -7 100 15 53 30 61 132 67 25 2 46 7 45 13 -1 5 19 10 44 10 37 1
46 -2 41 -14 -3 -9 -1 -12 6 -7 9 5 12 -6 12 -36 1 -24 7 -56 15 -73 13 -30
13 -29 8 17 -7 61 4 121 21 115 10 -4 12 1 10 16 -2 12 -2 16 2 9 3 -6 9 -10
13 -7 4 2 25 5 47 6 21 1 48 7 59 14 27 16 88 27 80 15 -9 -15 8 -12 34 7 14
9 21 12 18 6 -4 -6 -1 -13 6 -16 23 -8 32 -6 29 9 -2 8 1 14 7 14 5 0 12 -28
16 -62 12 -110 74 -231 144 -283 20 -14 17 -9 -9 21 -52 58 -77 103 -95 169
-17 67 -20 135 -5 135 6 0 10 -6 10 -12 0 -10 3 -9 9 1 5 8 14 10 21 6 8 -5
11 -4 6 3 -4 6 5 17 21 25 23 12 198 64 268 80 l20 5 -20 1 c-48 3 -296 -74
-308 -95 -5 -8 -13 -12 -18 -9 -5 4 -7 11 -4 16 6 8 -26 12 -92 13 -13 0 -23
3 -23 7 0 4 -8 9 -17 11 -13 3 -9 9 17 20 19 8 64 29 100 45 108 50 134 60
167 67 18 4 35 12 38 17 8 11 -18 12 -30 1 -6 -5 -30 -14 -55 -21 -25 -7 -79
-29 -120 -48 -165 -77 -156 -75 -262 -67 -54 3 -98 11 -98 16 0 15 217 164
263 181 7 2 9 7 6 11 -10 11 -156 -81 -256 -161 -39 -32 -45 -34 -116 -32
l-75 2 9 24 c5 14 16 35 24 46 15 21 15 21 15 1 0 -11 -5 -25 -12 -32 -6 -6
-9 -14 -6 -18 4 -3 13 7 22 24 9 17 29 34 48 41 18 7 56 21 83 32 100 41 256
90 265 84 6 -4 36 3 68 13 78 27 321 62 537 77 139 9 608 38 648 39 34 1 36 2
20 15 -10 7 -60 33 -112 58 l-94 45 -191 -22 c-185 -20 -240 -27 -431 -51
-125 -16 -372 -64 -458 -90 -76 -24 -210 -75 -279 -109 -23 -11 -51 -20 -61
-20 -20 0 -20 1 -2 20 10 12 25 18 33 15 8 -3 16 3 19 15 3 11 14 20 25 20 10
0 16 5 13 10 -3 6 2 13 12 17 10 3 42 21 71 40 29 18 56 33 60 33 5 0 18 9 31
21 25 24 129 79 149 79 6 0 21 9 32 20 19 19 19 20 1 20 -25 0 -311 -128 -473
-211 -25 -13 -22 0 4 23 19 16 20 21 8 28 -8 6 -10 10 -4 10 6 0 23 24 38 53
15 28 40 75 56 102 17 28 33 58 36 68 4 9 10 17 14 17 4 0 15 19 25 43 11 23
26 49 34 58 40 41 78 94 87 122 4 9 10 17 15 17 5 0 9 6 9 14 0 27 145 137
338 256 101 62 313 200 397 257 38 26 74 50 79 52 6 2 19 13 30 23 11 10 32
21 46 24 30 6 28 5 135 77 83 56 273 177 279 177 1 0 52 27 112 61 480 268
1024 439 1527 479 70 5 153 10 183 10 29 0 54 4 54 10 0 5 -34 56 -75 113
l-76 103 -87 -8 c-634 -55 -1269 -287 -1872 -686 -136 -90 -387 -272 -456
-332 -18 -15 -49 -31 -70 -34 -56 -10 -174 -46 -207 -63 -43 -22 -45 -7 -4 31
20 19 37 32 37 31 0 -2 12 9 28 23 15 15 49 46 76 70 61 52 49 56 -13 4 -25
-21 -71 -57 -101 -79 -30 -22 -71 -54 -90 -72 -19 -17 -39 -31 -43 -31 -5 0
-14 -6 -21 -12 -8 -7 -24 -20 -36 -28 -12 -8 -50 -36 -84 -62 -33 -26 -124
-95 -201 -154 -77 -59 -142 -110 -145 -113 -3 -3 -36 -32 -73 -65 -55 -47 -71
-56 -80 -46 -9 10 -9 11 1 6 7 -4 12 -1 12 8 0 9 5 16 10 16 6 0 9 3 9 8 -1 4
4 23 12 42 7 19 12 38 11 43 -1 4 2 7 8 7 5 0 10 6 10 14 0 7 7 19 15 26 8 7
15 21 15 31 0 11 5 19 10 19 6 0 10 9 10 20 0 10 9 24 20 30 11 6 20 17 20 25
0 19 59 118 76 128 8 4 14 13 14 20 0 7 16 37 35 66 23 35 33 60 29 70 -6 14
-8 14 -11 -2 -3 -10 -16 -22 -29 -27 -13 -5 -23 -13 -22 -18 2 -4 -16 -27 -39
-51 -24 -23 -43 -45 -43 -47 0 -3 -24 -37 -53 -77 -29 -40 -79 -111 -111 -159
-32 -49 -60 -88 -62 -88 -2 0 -11 16 -20 35 -9 20 -19 33 -22 31 -2 -3 3 -21
12 -40 21 -45 20 -55 -7 -96 -13 -19 -45 -75 -72 -125 -63 -117 -64 -118 -83
-103 -13 12 -14 10 -2 -9 12 -19 11 -27 -7 -65 -12 -24 -31 -64 -42 -90 -12
-27 -23 -48 -25 -48 -9 0 -98 162 -144 260 -53 112 -100 246 -132 369 -24 95
-40 272 -30 331 8 50 40 130 52 130 5 0 8 28 9 63 0 39 3 55 8 42 6 -14 15 13
35 95 16 63 36 126 45 140 10 14 23 42 30 62 7 20 19 42 27 48 7 7 14 21 14
31 0 11 4 19 10 19 5 0 12 17 16 38 3 20 12 47 20 59 8 12 14 31 14 42 0 29
11 51 25 51 7 0 15 13 18 28 3 15 18 40 32 56 22 24 26 35 20 63 -5 29 -3 35
14 40 12 3 21 9 21 14 0 5 12 28 26 50 14 23 23 43 20 47 -3 3 -6 1 -6 -5 0
-6 -8 -14 -17 -17 -10 -4 3 13 27 38 24 24 48 42 54 39 5 -4 6 -1 2 6 -5 7 0
18 10 26 11 7 16 16 12 20 -4 4 -40 -26 -80 -66z m372 -1285 c0 -8 -5 -12 -10
-9 -6 4 -8 11 -5 16 9 14 15 11 15 -7z m-1115 -234 c3 -5 1 -10 -4 -10 -6 0
-11 5 -11 10 0 6 2 10 4 10 3 0 8 -4 11 -10z m1144 -302 c-7 -13 -24 -39 -39
-58 -64 -84 -153 -267 -196 -407 -14 -46 -29 -83 -33 -83 -4 0 4 42 19 93 29
98 89 233 148 332 54 89 136 190 101 123z m-485 -431 c33 -44 36 -126 6 -172
-13 -20 -20 -47 -20 -80 0 -42 -5 -55 -31 -82 -16 -18 -34 -33 -38 -33 -5 0
-19 20 -31 44 -23 43 -23 44 -7 112 33 134 70 244 83 244 7 0 24 -15 38 -33z
m306 -171 c0 -8 -4 -17 -9 -21 -5 -3 -17 -27 -26 -54 -15 -47 -18 -50 -58 -56
-72 -11 -138 -34 -195 -66 -30 -16 -57 -27 -61 -24 -9 11 161 169 204 189 31
15 107 40 138 45 4 0 7 -5 7 -13z m-556 -158 c16 -14 27 -31 25 -41 -3 -14
-13 -10 -57 19 -42 29 -51 39 -41 50 12 15 26 10 73 -28z m953 -24 c-3 -3 -12
-4 -19 -1 -8 3 -5 6 6 6 11 1 17 -2 13 -5z m-107 -8 c0 -2 -9 -6 -20 -9 -11
-3 -18 -1 -14 4 5 9 34 13 34 5z m-724 -74 c-19 -19 -42 -3 -32 23 5 13 10 14
27 4 20 -10 20 -12 5 -27z m70 -38 c-3 -9 -6 -21 -6 -27 0 -8 -3 -8 -11 0 -13
13 -5 43 12 43 6 0 8 -7 5 -16z m41 -26 c-3 -8 -6 -5 -6 6 -1 11 2 17 5 13 3
-3 4 -12 1 -19z m-347 -142 c50 -24 70 -53 25 -36 -15 6 -38 19 -52 29 -17 14
-33 18 -58 14 -19 -3 -42 -2 -52 2 -17 7 -17 8 2 15 29 11 83 1 135 -24z"/>
<path d="M9217 11048 c-15 -17 -25 -33 -22 -36 6 -7 44 27 56 50 15 28 -3 20
-34 -14z"/>
<path d="M9432 10300 c0 -14 2 -19 5 -12 2 6 2 18 0 25 -3 6 -5 1 -5 -13z"/>
<path d="M10879 10113 c-13 -16 -12 -17 4 -4 9 7 17 15 17 17 0 8 -8 3 -21
-13z"/>
<path d="M10428 10103 c7 -3 16 -2 19 1 4 3 -2 6 -13 5 -11 0 -14 -3 -6 -6z"/>
<path d="M10355 10081 c-43 -17 -65 -33 -65 -50 0 -13 13 -14 26 -2 5 5 31 20
57 34 56 28 42 41 -18 18z"/>
<path d="M10267 10016 c-7 -19 4 -27 21 -17 10 6 10 10 -1 20 -12 9 -16 8 -20
-3z"/>
<path d="M8550 9800 c8 -5 20 -10 25 -10 6 0 3 5 -5 10 -8 5 -19 10 -25 10 -5
0 -3 -5 5 -10z"/>
<path d="M5140 9789 c-179 -11 -399 -41 -590 -79 -152 -31 -519 -127 -533
-140 -11 -10 13 -91 29 -97 7 -2 50 7 96 22 127 40 386 102 543 130 244 43
436 58 745 59 368 0 612 -18 985 -75 l80 -12 64 38 c45 26 60 40 50 45 -36 20
-462 81 -689 99 -186 15 -615 21 -780 10z"/>
<path d="M14010 9793 c-354 -12 -729 -63 -1095 -148 -173 -41 -365 -92 -373
-100 -7 -6 -9 -4 57 -44 l55 -33 185 45 c450 110 695 145 1172 168 367 18 770
-9 1078 -71 125 -25 429 -102 490 -124 67 -25 75 -22 89 30 7 26 10 49 8 52
-8 7 -182 57 -336 96 -419 107 -835 147 -1330 129z"/>
<path d="M8638 9773 c7 -3 16 -2 19 1 4 3 -2 6 -13 5 -11 0 -14 -3 -6 -6z"/>
<path d="M9770 9681 c0 -5 5 -13 10 -16 6 -3 10 -2 10 4 0 5 -4 13 -10 16 -5
3 -10 2 -10 -4z"/>
<path d="M9796 9630 c3 -14 10 -32 15 -40 7 -13 8 -13 8 0 0 8 -6 26 -15 40
l-15 25 7 -25z"/>
<path d="M16128 9437 c-63 -67 -128 -135 -143 -152 -15 -16 -66 -72 -114 -124
-47 -52 -90 -99 -96 -105 -5 -6 -48 -53 -94 -104 -46 -51 -136 -136 -200 -190
-64 -53 -118 -99 -121 -102 -18 -20 -327 -273 -434 -355 -376 -286 -735 -523
-1343 -884 -95 -56 -173 -104 -173 -107 0 -2 62 -2 138 1 294 12 969 35 1012
35 l45 0 52 -102 c82 -162 337 -653 456 -878 28 -52 63 -120 78 -150 16 -30
32 -61 37 -68 7 -10 31 4 98 58 117 93 103 82 234 185 63 49 117 92 120 95 3
3 25 21 50 40 25 19 54 42 65 51 11 9 58 47 105 85 182 146 579 481 620 524 3
3 23 20 45 39 264 224 867 846 837 865 -9 6 -236 37 -482 66 -96 11 -229 27
-295 36 -121 16 -310 56 -322 68 -4 4 -16 293 -26 644 -11 350 -22 640 -26
644 -4 4 -59 -47 -123 -115z"/>
<path d="M3430 9458 c-2 -238 -38 -1190 -46 -1197 -23 -21 -338 -74 -564 -96
-246 -24 -528 -64 -536 -77 -12 -18 853 -865 1076 -1054 19 -16 55 -47 80 -70
90 -82 320 -273 515 -429 110 -88 207 -165 215 -172 104 -84 283 -223 285
-221 4 5 163 306 260 493 48 94 104 202 125 240 20 39 81 156 135 260 54 105
103 196 110 203 10 12 68 12 336 2 178 -6 443 -15 589 -20 145 -5 266 -8 268
-6 2 3 -74 50 -170 107 -95 56 -220 132 -278 167 -58 36 -145 89 -195 120 -49
30 -112 69 -140 87 -540 347 -867 592 -1230 925 -86 78 -439 432 -514 515
-159 175 -296 315 -308 315 -10 0 -13 -24 -13 -92z"/>
<path d="M12400 9412 c0 -5 14 -7 30 -4 17 2 30 6 30 8 0 2 -13 4 -30 4 -16 0
-30 -4 -30 -8z"/>
<path d="M9560 9371 c0 -6 4 -13 10 -16 6 -3 7 1 4 9 -7 18 -14 21 -14 7z"/>
<path d="M9590 9321 c0 -5 5 -13 10 -16 6 -3 10 -2 10 4 0 5 -4 13 -10 16 -5
3 -10 2 -10 -4z"/>
<path d="M9642 9240 c7 -10 14 -18 15 -16 6 6 -9 36 -18 36 -5 0 -4 -9 3 -20z"/>
<path d="M15325 9230 c-3 -6 3 -22 14 -36 24 -31 28 -74 7 -74 -8 0 -28 17
-44 38 -24 28 -33 34 -43 25 -9 -9 -7 -19 10 -46 50 -81 2 -94 -54 -14 -12 17
-17 19 -27 9 -10 -10 -10 -17 1 -35 8 -12 19 -30 25 -40 13 -20 2 -42 -36 -70
-42 -32 -66 -17 -137 83 -51 73 -66 89 -77 79 -11 -9 -5 -23 33 -78 94 -132
102 -141 138 -141 26 0 45 11 88 50 30 28 60 50 66 50 6 0 21 11 33 25 12 14
27 25 34 25 21 0 44 30 44 58 0 28 -44 102 -60 102 -5 0 -12 -5 -15 -10z"/>
<path d="M14900 9105 c-10 -12 -4 -25 32 -72 110 -146 129 -189 104 -229 -20
-29 -60 -47 -87 -39 -10 4 -34 25 -54 47 -26 31 -38 39 -46 31 -14 -14 15 -57
63 -98 25 -21 39 -26 65 -22 43 7 79 34 98 75 15 31 15 37 -1 83 -10 27 -25
57 -34 67 -9 9 -40 52 -69 95 -29 42 -55 77 -56 77 -1 0 -8 -7 -15 -15z"/>
<path d="M10535 9055 c-16 -8 -23 -14 -15 -14 8 0 26 6 40 14 32 18 15 18 -25
0z"/>
<path d="M8655 8975 c17 -13 34 -24 38 -25 5 0 -5 11 -21 25 -17 14 -34 25
-38 25 -5 0 5 -11 21 -25z"/>
<path d="M10568 8993 c7 -3 16 -2 19 1 4 3 -2 6 -13 5 -11 0 -14 -3 -6 -6z"/>
<path d="M7995 8905 c-115 -40 -178 -79 -252 -154 -44 -43 -54 -71 -12 -32 13
12 26 21 31 21 4 0 8 6 8 14 0 13 27 31 43 27 4 0 10 5 13 13 3 8 12 12 19 10
8 -3 11 -12 8 -20 -4 -11 3 -10 28 6 19 11 42 23 51 26 9 3 14 12 12 19 -6 14
52 32 63 21 4 -3 14 1 24 9 12 12 55 18 160 25 79 5 146 10 149 10 3 1 -6 6
-20 12 -14 5 -77 12 -140 14 -103 4 -122 2 -185 -21z m253 -2 c-21 -2 -57 -2
-80 0 -24 2 -7 4 37 4 44 0 63 -2 43 -4z m-340 -73 c-7 -11 -22 -20 -33 -20
-17 0 -15 3 10 20 37 25 38 25 23 0z"/>
<path d="M8380 8886 c0 -2 7 -7 16 -10 8 -3 12 -2 9 4 -6 10 -25 14 -25 6z"/>
<path d="M14345 8820 c-8 -12 4 -70 13 -70 11 1 42 26 42 34 0 4 -8 5 -19 1
-12 -3 -21 0 -25 10 -3 8 -1 15 4 15 6 0 10 5 10 10 0 13 -17 13 -25 0z"/>
<path d="M11303 8783 c15 -2 37 -2 50 0 12 2 0 4 -28 4 -27 0 -38 -2 -22 -4z"/>
<path d="M11393 8783 c9 -2 25 -2 35 0 9 3 1 5 -18 5 -19 0 -27 -2 -17 -5z"/>
<path d="M11065 8773 c-105 -13 -384 -81 -339 -82 12 -1 39 5 60 12 47 17 241
54 344 66 69 8 71 8 20 8 -30 0 -68 -2 -85 -4z"/>
<path d="M7795 8760 c-3 -5 -2 -10 4 -10 5 0 13 5 16 10 3 6 2 10 -4 10 -5 0
-13 -4 -16 -10z"/>
<path d="M14544 8759 c-10 -17 13 -36 27 -22 12 12 4 33 -11 33 -5 0 -12 -5
-16 -11z"/>
<path d="M7830 8745 c-7 -9 -13 -28 -13 -43 0 -29 29 -82 45 -82 5 0 0 12 -11
26 -23 30 -26 55 -10 86 13 25 6 34 -11 13z"/>
<path d="M14395 8739 c-7 -11 37 -82 104 -166 28 -36 49 -53 64 -53 29 0 75
32 70 48 -3 7 1 10 10 6 17 -6 57 32 57 55 0 22 -49 101 -64 101 -25 0 -25
-13 -1 -49 14 -19 25 -41 25 -47 0 -21 -71 -75 -93 -72 -20 3 -74 69 -129 156
-21 33 -32 39 -43 21z"/>
<path d="M14494 8729 c-9 -15 11 -33 30 -26 9 4 13 13 10 22 -7 17 -30 20 -40
4z"/>
<path d="M4885 8576 c-47 -62 -85 -117 -85 -120 0 -16 41 -3 51 16 7 13 19 29
26 37 8 7 22 26 31 40 9 14 31 44 49 67 18 23 33 46 33 52 0 35 -29 10 -105
-92z"/>
<path d="M7666 8665 c-9 -14 -13 -25 -8 -25 5 0 14 11 20 25 6 14 10 25 8 25
-2 0 -11 -11 -20 -25z"/>
<path d="M4955 8524 c-67 -89 -84 -118 -74 -125 8 -5 17 -9 21 -9 5 0 63 75
84 108 3 6 67 -34 90 -55 13 -13 32 -23 44 -23 21 0 90 66 90 86 0 27 -21 24
-46 -5 -26 -31 -64 -42 -64 -18 0 7 11 28 25 47 24 32 25 50 3 50 -7 0 -26
-16 -44 -36 -50 -53 -76 -23 -33 37 20 28 20 59 1 59 -5 0 -49 -52 -97 -116z"/>
<path d="M11080 8631 c-25 -4 36 -5 135 -3 99 2 185 5 190 7 18 6 -279 2 -325
-4z"/>
<path d="M11448 8623 c6 -2 18 -2 25 0 6 3 1 5 -13 5 -14 0 -19 -2 -12 -5z"/>
<path d="M10940 8610 c-16 -6 -6 -7 30 -3 30 3 57 7 59 9 8 7 -64 2 -89 -6z"/>
<path d="M10873 8593 c9 -2 23 -2 30 0 6 3 -1 5 -18 5 -16 0 -22 -2 -12 -5z"/>
<path d="M8830 8586 c0 -2 8 -10 18 -17 15 -13 16 -12 3 4 -13 16 -21 21 -21
13z"/>
<path d="M14415 8580 c-3 -6 3 -23 14 -39 24 -34 28 -71 7 -71 -8 0 -28 17
-45 37 -22 27 -34 34 -42 26 -7 -7 -4 -20 10 -44 12 -19 21 -42 21 -51 0 -37
-46 -14 -76 38 -9 15 -15 16 -25 7 -10 -10 -7 -21 12 -58 l24 -47 -35 -29
c-45 -38 -62 -37 -98 9 -24 28 -33 34 -43 25 -9 -9 -7 -18 10 -41 11 -17 21
-39 21 -50 0 -20 -52 -72 -72 -72 -6 0 -26 17 -44 37 -25 27 -37 34 -45 26 -8
-8 -4 -22 13 -51 19 -34 21 -43 10 -54 -11 -11 -20 -6 -48 26 -28 32 -36 37
-49 26 -13 -10 -11 -16 11 -46 25 -32 27 -64 5 -64 -12 0 -61 51 -61 62 0 12
-28 10 -35 -2 -3 -5 10 -31 29 -56 46 -60 49 -112 10 -143 -41 -32 -72 -27
-115 19 -58 61 -83 49 -33 -17 28 -37 72 -63 105 -63 54 0 128 85 114 129 -7
22 36 69 79 89 14 6 29 19 32 27 4 8 14 15 23 15 17 0 87 52 109 82 7 10 19
18 26 18 14 0 97 59 109 77 4 7 24 20 43 28 18 8 34 19 34 25 0 6 13 16 30 21
29 11 46 40 41 69 -4 22 -50 90 -61 90 -5 0 -12 -5 -15 -10z"/>
<path d="M8870 8552 c0 -14 37 -58 43 -52 3 3 -6 18 -19 33 -13 15 -24 24 -24
19z"/>
<path d="M10982 8460 c-40 -5 -81 -14 -90 -20 -14 -10 -13 -10 8 -5 101 23
420 29 553 10 l32 -5 -30 11 c-39 14 -379 20 -473 9z"/>
<path d="M5250 8443 c-30 -11 -60 -47 -66 -80 -7 -40 15 -79 53 -94 28 -10 29
-6 -25 -73 -22 -27 -22 -30 -6 -39 14 -8 21 -5 33 12 8 12 38 55 68 94 62 84
69 122 28 162 -23 24 -52 30 -85 18z m74 -66 c7 -28 -10 -56 -42 -68 -23 -9
-30 -7 -44 11 -24 30 -23 46 7 75 21 22 28 23 49 14 13 -6 27 -21 30 -32z"/>
<path d="M11540 8424 c98 -25 134 -37 183 -61 59 -29 97 -44 97 -38 0 2 -33
20 -72 40 -67 32 -213 76 -248 74 -8 0 10 -7 40 -15z"/>
<path d="M10878 8415 c-13 -14 43 -185 62 -185 4 0 -4 35 -18 78 -37 114 -37
114 -44 107z"/>
<path d="M11854 8301 c7 -11 46 -35 46 -28 0 3 -12 12 -26 22 -15 9 -23 12
-20 6z"/>
<path d="M5446 8275 c-49 -17 -57 -30 -54 -84 l3 -44 -45 -11 c-29 -7 -46 -17
-48 -28 -5 -24 12 -23 141 8 87 21 107 30 105 43 -3 13 -14 15 -59 13 -48 -3
-57 -1 -61 15 -9 37 2 51 48 58 35 5 44 10 44 26 0 23 -19 24 -74 4z"/>
<path d="M10130 8253 c0 -7 4 -13 8 -13 5 0 14 -10 20 -22 6 -13 11 -18 11
-12 1 7 -8 22 -19 35 -10 13 -19 18 -20 12z"/>
<path d="M11408 8253 c12 -2 30 -2 40 0 9 3 -1 5 -23 4 -22 0 -30 -2 -17 -4z"/>
<path d="M14217 8214 c-14 -14 -7 -35 11 -32 9 2 17 10 17 17 0 16 -18 25 -28
15z"/>
<path d="M14170 8180 c-13 -8 -13 -11 1 -25 13 -14 17 -14 27 -2 16 19 -7 40
-28 27z"/>
<path d="M9862 8150 c7 -11 17 -20 22 -20 5 0 1 9 -9 20 -10 11 -20 20 -22 20
-2 0 2 -9 9 -20z"/>
<path d="M10190 8166 c0 -2 7 -7 16 -10 8 -3 12 -2 9 4 -6 10 -25 14 -25 6z"/>
<path d="M10608 8104 c-55 -35 -63 -56 -38 -104 11 -22 23 -40 25 -40 3 0 -1
13 -10 30 -8 16 -15 38 -15 49 0 22 53 67 85 73 15 3 17 5 5 9 -8 4 -32 -4
-52 -17z"/>
<path d="M10290 8086 c0 -2 7 -7 16 -10 8 -3 12 -2 9 4 -6 10 -25 14 -25 6z"/>
<path d="M9797 8059 c7 -7 15 -10 18 -7 3 3 -2 9 -12 12 -14 6 -15 5 -6 -5z"/>
<path d="M8540 8040 c-9 -6 -10 -10 -3 -10 6 0 15 5 18 10 8 12 4 12 -15 0z"/>
<path d="M8500 8020 c-9 -6 -10 -10 -3 -10 6 0 15 5 18 10 8 12 4 12 -15 0z"/>
<path d="M13601 8007 c-8 -11 -6 -18 8 -31 16 -15 19 -15 31 -1 10 12 10 18 0
30 -15 19 -24 19 -39 2z"/>
<path d="M9625 7956 c10 -14 19 -26 22 -26 7 0 -17 39 -28 46 -6 3 -3 -5 6
-20z"/>
<path d="M13663 7914 c-3 -8 1 -22 9 -30 13 -13 16 -13 27 0 7 9 11 23 7 31
-7 20 -35 19 -43 -1z"/>
<path d="M9662 7882 c17 -67 -16 -125 -102 -184 -14 -10 -20 -18 -13 -18 17 0
72 49 104 94 32 44 38 100 15 132 -13 17 -14 14 -4 -24z"/>
<path d="M13094 7586 c-44 -47 -69 -105 -80 -191 -7 -57 -16 -73 -57 -100 -33
-21 -39 -16 -56 45 -19 67 -37 90 -71 90 -77 0 -140 -173 -140 -386 0 -69 3
-84 20 -99 18 -16 26 -17 58 -8 20 5 45 14 55 18 30 13 20 -18 -33 -99 -48
-74 -140 -196 -168 -225 -7 -8 -18 -25 -23 -39 -16 -43 4 -48 68 -18 32 15 79
37 105 48 36 17 53 32 72 68 26 48 59 172 71 267 6 46 11 55 41 74 22 13 45
42 62 76 28 54 28 54 46 34 26 -28 56 -26 99 7 67 51 112 182 101 297 -17 178
-82 232 -170 141z m96 -97 c7 -11 14 -44 17 -73 4 -41 2 -56 -12 -69 -9 -9
-20 -17 -25 -17 -34 0 -61 106 -39 154 15 31 44 34 59 5z m-357 -281 c20 -16
12 -30 -31 -52 -49 -25 -68 -4 -36 42 17 25 42 28 67 10z"/>
<path d="M7774 7581 c-21 -15 -79 -67 -129 -114 -49 -48 -92 -87 -94 -87 -2 0
-16 11 -33 25 -59 50 -128 23 -212 -86 -25 -32 -50 -59 -55 -59 -10 0 -25 37
-41 99 -13 48 -21 45 -40 -12 -7 -21 -19 -41 -27 -44 -8 -3 -38 3 -66 15 -152
61 -244 56 -296 -17 -23 -33 -37 -109 -23 -129 5 -8 42 -30 83 -50 80 -41 98
-62 52 -62 -72 0 -221 61 -268 110 -38 40 -44 106 -16 178 29 73 27 142 -4
142 -7 0 -35 -39 -61 -87 -114 -210 -126 -249 -100 -316 23 -62 77 -112 161
-153 97 -47 163 -58 222 -38 64 22 122 96 141 179 13 58 -1 80 -76 118 -36 18
-67 38 -70 45 -6 18 50 15 100 -7 56 -24 93 -68 102 -120 10 -62 67 -81 119
-41 l26 21 25 -39 c30 -48 71 -82 108 -89 16 -3 31 -9 33 -13 3 -5 29 -3 59 4
68 16 133 66 158 122 18 42 41 174 39 226 -1 14 5 33 13 41 8 8 12 18 8 22 -4
4 2 5 13 3 16 -2 23 7 37 47 9 28 18 46 18 40 1 -5 5 0 10 13 5 12 17 22 26
22 10 0 14 5 10 15 -4 10 1 15 14 15 12 0 17 5 14 13 -2 7 7 19 21 27 22 12
54 50 42 50 -2 0 -22 -13 -43 -29z m-324 -316 c11 -14 6 -28 -35 -92 -1 -2
-25 4 -53 12 -59 18 -65 34 -24 61 54 37 92 44 112 19z"/>
<path d="M8672 7340 c-12 -16 -22 -34 -22 -39 0 -20 44 -101 54 -101 6 0 21
16 34 35 l22 35 -25 50 c-14 28 -29 50 -33 50 -5 0 -18 -13 -30 -30z"/>
<path d="M12520 7260 c-18 -35 -20 -52 -15 -105 6 -56 5 -65 -14 -84 -39 -39
-64 -24 -76 47 -4 24 -12 42 -20 42 -16 0 -23 -16 -31 -79 -12 -91 -71 -111
-90 -31 -6 27 -16 45 -25 45 -14 0 -21 -16 -40 -93 -8 -36 -16 -46 -46 -58
-54 -23 -66 -16 -78 46 -13 67 -36 75 -48 15 -18 -87 -28 -113 -43 -119 -26
-10 -41 10 -48 64 -11 81 -56 54 -56 -33 0 -43 -26 -79 -53 -75 -21 3 -26 14
-42 91 -6 30 -31 37 -39 10 -2 -10 -8 -38 -11 -62 -9 -54 -43 -91 -84 -91 -16
0 -33 5 -37 11 -6 10 -53 351 -54 389 0 30 -100 -163 -100 -194 0 -17 -11 -49
-24 -71 -14 -22 -36 -60 -51 -85 -59 -98 -72 -209 -32 -256 18 -20 35 -28 74
-31 50 -5 52 -4 69 28 l18 34 6 -30 c16 -72 42 -91 111 -80 42 7 93 49 104 86
9 26 23 24 37 -6 22 -48 66 -29 103 45 17 34 18 34 28 13 17 -39 79 -42 92 -5
3 9 14 28 25 42 l19 25 16 -22 c32 -46 111 -19 146 49 l21 41 23 -29 c23 -28
25 -28 52 -14 15 9 39 36 52 60 24 43 25 43 39 22 8 -13 25 -22 39 -22 78 0
141 193 131 398 -6 113 -18 131 -48 72z m-1016 -473 l7 -48 -38 3 c-50 4 -56
34 -17 90 32 45 36 41 48 -45z"/>
<path d="M10482 7217 l-64 -72 3 -260 c4 -301 3 -305 -65 -305 -54 0 -65 12
-80 87 -15 80 -35 77 -57 -6 -19 -74 -37 -91 -91 -91 -42 0 -57 20 -85 114
-32 110 -84 153 -147 123 -39 -18 -60 -58 -77 -147 -6 -36 -16 -71 -22 -77 -6
-9 -39 -13 -96 -13 -47 0 -106 -5 -130 -11 -63 -14 -130 -64 -152 -113 -23
-50 -25 -138 -4 -156 8 -7 49 -18 91 -25 42 -8 79 -17 82 -20 4 -4 -2 -13 -13
-22 -16 -11 -40 -14 -110 -10 -109 6 -156 19 -198 57 -31 27 -32 31 -31 102 1
40 4 105 8 143 8 79 -3 111 -28 85 -16 -17 -77 -183 -101 -275 -8 -32 -15 -89
-15 -126 0 -59 4 -73 33 -115 72 -108 267 -145 383 -73 91 56 160 263 105 318
-11 11 -41 22 -68 26 -69 9 -83 15 -83 30 0 17 22 25 70 25 74 0 134 -38 145
-92 9 -41 46 -56 81 -34 14 10 33 31 42 47 10 16 19 29 22 29 3 -1 14 -20 25
-43 18 -37 24 -42 57 -45 44 -4 81 19 99 61 6 15 15 27 19 27 4 0 11 -12 15
-27 10 -43 34 -63 74 -63 43 0 75 20 101 63 l19 31 9 -25 c18 -46 47 -62 99
-56 42 4 53 11 90 54 24 26 43 43 43 36 0 -6 12 -26 27 -43 26 -31 28 -32 87
-25 75 8 87 15 131 72 19 25 35 41 35 35 0 -6 12 -25 27 -42 27 -32 27 -32 97
-26 120 11 178 59 214 175 23 77 23 312 0 394 -19 68 -49 120 -56 97 -3 -8
-16 -40 -30 -70 -14 -30 -30 -73 -37 -95 -11 -37 -10 -41 20 -85 37 -51 48
-80 37 -96 -13 -20 -202 -45 -202 -26 0 4 14 34 30 66 23 45 30 72 30 115 0
64 -15 93 -62 117 -81 42 -198 -55 -198 -165 0 -30 7 -46 29 -69 30 -29 49
-77 37 -90 -4 -3 -35 -8 -70 -10 -62 -4 -63 -4 -75 27 -10 24 -12 99 -6 346 4
173 6 315 4 315 -2 -1 -33 -33 -67 -73z m-495 -563 c12 -19 17 -48 18 -103 0
-74 -1 -76 -24 -76 -30 0 -49 46 -50 122 -2 86 21 109 56 57z"/>
<path d="M11060 7253 l-22 -38 -28 33 -27 33 -22 -45 c-11 -25 -21 -49 -21
-52 0 -10 41 -64 49 -64 4 0 15 17 25 37 l18 38 28 -35 27 -34 27 42 c14 23
26 44 26 47 0 10 -45 75 -52 75 -3 0 -16 -17 -28 -37z"/>
<path d="M4974 6922 c-94 -191 -291 -587 -438 -880 l-266 -532 58 -37 c31 -20
82 -51 112 -68 30 -18 147 -86 260 -152 481 -281 864 -466 1435 -695 197 -79
607 -220 815 -280 58 -16 128 -36 155 -44 471 -136 1146 -268 1645 -323 784
-87 1547 -90 2260 -11 288 32 261 29 580 81 652 106 1339 294 1910 521 41 17
108 43 148 59 365 144 837 380 1232 617 96 58 220 135 276 171 55 36 107 71
116 76 8 6 45 30 82 53 36 24 66 47 66 50 0 4 -77 162 -171 352 -95 190 -284
572 -421 850 -137 278 -254 510 -260 517 -7 8 -15 10 -22 4 -6 -5 -27 -18 -46
-29 -19 -10 -114 -68 -210 -127 -383 -235 -632 -366 -1035 -546 -88 -39 -186
-79 -335 -135 -80 -30 -161 -61 -180 -69 -54 -21 -333 -110 -450 -144 -867
-249 -1845 -368 -2730 -332 -990 40 -1883 215 -2745 539 -246 93 -290 111
-558 234 l-198 91 7 31 c3 17 22 85 41 151 34 116 63 222 63 230 0 4 -166 13
-559 30 l-333 14 -62 41 c-34 22 -64 40 -67 40 -2 0 -81 -156 -175 -348z
m1709 -998 c21 -42 36 -78 34 -80 -5 -5 -146 -74 -152 -74 -3 0 -23 36 -44 79
l-40 79 67 35 c37 20 74 36 82 36 10 1 30 -28 53 -75z m4021 -197 c4 -39 18
-209 32 -377 27 -338 30 -347 97 -364 27 -7 95 -1 264 23 420 59 695 102 712
110 9 5 48 14 86 21 95 17 115 26 115 49 0 20 -41 56 -127 110 -29 18 -53 36
-53 39 0 3 22 58 49 121 27 64 51 124 54 134 11 30 33 19 91 -43 102 -111 166
-293 166 -477 0 -160 -63 -241 -220 -283 -25 -7 -47 -16 -50 -20 -3 -5 -73
-18 -155 -29 -83 -11 -305 -43 -495 -71 -460 -66 -558 -66 -651 2 -36 27 -73
86 -88 143 -6 22 -16 92 -21 155 -16 172 -48 423 -66 522 -9 48 -14 94 -11
101 8 21 247 218 257 212 4 -3 11 -38 14 -78z m2695 -54 c132 -77 227 -235
276 -457 23 -102 17 -237 -14 -318 l-22 -57 -82 -32 c-299 -115 -355 -128
-375 -84 -11 23 -6 32 62 112 114 138 192 247 232 328 32 65 36 79 26 100 -14
30 -78 72 -168 111 -63 28 -64 29 -64 68 0 40 17 201 26 244 4 20 9 23 32 17
15 -3 47 -18 71 -32z m-6784 -141 c53 -119 118 -172 209 -172 51 0 90 27 121
84 23 43 59 65 83 50 13 -8 18 -30 22 -85 3 -41 11 -84 18 -96 30 -53 56 -60
797 -214 298 -63 307 -64 334 -49 13 6 33 33 45 58 32 69 49 92 67 92 26 0 45
-31 58 -95 14 -72 26 -86 83 -92 39 -5 46 -2 60 19 9 14 21 44 28 66 21 80 93
92 105 17 3 -19 7 -51 10 -70 8 -46 46 -75 100 -75 59 0 74 28 56 112 l-12 60
53 49 c29 26 58 48 64 49 19 0 26 -29 31 -130 6 -114 -12 -218 -57 -316 -57
-125 -101 -164 -187 -164 -59 0 -102 24 -133 75 l-23 38 -26 -31 c-14 -17 -43
-39 -64 -47 -36 -15 -43 -15 -88 0 -47 16 -99 65 -99 93 0 19 -18 14 -30 -7
-18 -34 -74 -61 -126 -61 -44 0 -218 34 -674 130 -80 17 -190 40 -245 51 -157
32 -225 70 -265 149 l-20 39 -36 -24 c-51 -34 -110 -41 -194 -20 -39 10 -78
24 -86 32 -18 19 -18 20 -43 -45 -12 -30 -31 -68 -44 -86 -62 -92 -182 -196
-226 -196 -30 0 -372 122 -408 145 -12 9 -23 23 -23 32 0 24 30 53 55 53 63 0
406 86 470 118 46 22 75 53 75 80 0 27 -44 141 -72 187 -10 17 -18 37 -18 45
0 16 199 220 215 220 6 -1 23 -31 40 -68z m6060 57 c90 -25 167 -122 233 -292
22 -56 50 -149 63 -207 41 -195 26 -424 -33 -477 -15 -14 -150 -56 -359 -112
-64 -17 -92 -12 -103 21 -9 25 -3 33 95 130 117 116 147 149 206 228 46 63 67
99 60 107 -3 2 -40 -3 -82 -12 -179 -40 -250 3 -290 175 -24 104 -24 252 1
320 21 58 79 116 123 123 14 2 31 5 36 5 6 1 28 -3 50 -9z m-2430 -308 c78
-36 155 -154 155 -237 0 -62 -15 -68 -96 -42 -43 14 -95 22 -139 23 -59 0 -77
-4 -117 -28 -64 -37 -87 -80 -50 -91 9 -3 83 -15 164 -25 164 -22 188 -33 220
-95 41 -79 24 -267 -34 -380 -51 -101 -190 -190 -343 -222 -113 -23 -309 -23
-403 1 -130 31 -220 110 -258 225 -46 134 -2 450 71 524 24 24 62 20 81 -9 13
-21 15 -41 9 -129 -5 -69 -3 -115 4 -138 16 -47 65 -92 131 -119 50 -21 71
-23 235 -23 163 0 189 2 279 26 100 27 139 49 120 68 -5 5 -85 16 -178 24
-155 14 -173 17 -215 43 -25 16 -51 40 -58 53 -37 73 11 259 104 408 88 140
208 194 318 143z m-3371 -473 c8 -18 24 -46 36 -63 11 -16 20 -37 20 -46 0
-20 -138 -95 -151 -82 -16 16 -79 125 -79 137 0 13 118 85 141 86 9 0 24 -15
33 -32z m5430 -143 c30 -19 57 -38 59 -42 6 -11 -60 -112 -77 -119 -8 -3 -37
9 -66 27 -29 18 -55 28 -58 23 -4 -5 -19 -28 -35 -52 -15 -23 -33 -42 -40 -42
-17 0 -129 70 -125 79 16 35 75 121 83 121 6 0 32 -13 58 -30 26 -16 51 -30
55 -30 4 0 22 23 40 50 17 28 37 50 42 50 5 0 34 -16 64 -35z"/>
<path d="M12594 5305 c-40 -40 -29 -60 31 -59 62 1 127 27 119 48 -3 8 -19 19
-36 25 -51 18 -87 13 -114 -14z"/>
<path d="M14160 7263 c-19 -1 -192 -9 -384 -18 -192 -8 -351 -17 -353 -19 -2
-2 5 -34 15 -72 11 -38 38 -139 62 -224 23 -85 46 -159 50 -164 4 -4 28 3 52
17 23 13 72 40 108 59 269 144 444 246 583 341 64 44 117 81 117 83 0 5 -198
2 -250 -3z"/>
<path d="M7753 7218 c-27 -30 -39 -72 -58 -195 -23 -158 -21 -189 16 -224 17
-16 42 -32 55 -35 13 -3 24 -12 24 -20 0 -15 -133 -81 -233 -116 -64 -22 -68
-24 -65 -52 3 -27 11 -33 111 -74 l107 -45 26 29 c13 16 49 76 78 134 42 83
57 104 72 102 11 -2 32 -6 47 -9 20 -4 38 1 59 17 27 20 32 21 40 7 18 -33 61
-78 87 -91 61 -31 149 -26 192 10 23 20 27 18 34 -18 15 -68 31 -85 101 -108
98 -33 165 -26 235 25 113 82 120 85 169 85 l47 0 22 73 c29 100 28 107 -24
140 -46 29 -121 102 -157 153 -29 42 -87 84 -114 84 -64 0 -150 -164 -115
-219 7 -11 13 -10 35 4 16 11 35 15 48 11 35 -10 132 -101 123 -116 -10 -16
-94 -7 -200 23 l-80 23 0 104 c-1 112 -11 145 -57 186 -65 60 -137 26 -230
-109 -53 -77 -60 -74 -88 41 -6 23 -15 42 -20 42 -5 0 -15 -19 -21 -42 -19
-66 -31 -75 -73 -56 -29 14 -35 24 -41 60 -9 51 -44 148 -59 164 -14 14 -52
34 -64 34 -5 0 -18 -10 -29 -22z m62 -193 c32 -31 32 -55 3 -55 -33 1 -58 23
-58 54 0 33 23 34 55 1z m506 -76 c14 -14 19 -30 17 -52 l-3 -32 -70 1 c-38 0
-81 6 -95 14 l-24 13 43 38 c51 46 98 52 132 18z"/>
<path d="M10215 6120 c-26 -37 -31 -40 -40 -25 -31 52 -33 53 -69 10 l-34 -39
19 -38 c11 -21 24 -38 29 -38 5 0 18 14 30 30 12 17 25 30 30 30 5 0 14 -13
22 -30 7 -16 16 -30 19 -30 3 0 19 19 36 43 l31 42 -22 43 -22 44 -29 -42z"/>
</g>
</svg>
